/* XPM */
static char *_9bd6c6e330e45ca9a5237391b977ad7se7gLO37k2UQ4tOE[] = {
/* columns rows colors chars-per-pixel */
"64 64 247 2 ",
"   c #050005",
".  c #1C0C02",
"X  c #351D04",
"o  c #382805",
"O  c #302B15",
"+  c #482804",
"@  c #552B07",
"#  c #48370A",
"$  c #563708",
"%  c #4A3913",
"&  c #543314",
"*  c #673B09",
"=  c #673E19",
"-  c #56420A",
";  c #584614",
":  c #6B470C",
">  c #774B0C",
",  c #7C5309",
"<  c #754815",
"1  c #795517",
"2  c #6B4C17",
"3  c #734C27",
"4  c #7A5827",
"5  c #79563D",
"6  c #6C4B2B",
"7  c #796233",
"8  c #5A4939",
"9  c #7F5A41",
"0  c #756452",
"q  c #813A06",
"w  c #994D01",
"e  c #87560B",
"r  c #985805",
"t  c #884F16",
"y  c #8B5B15",
"u  c #855717",
"i  c #8D5411",
"p  c #A84B01",
"a  c #A55903",
"s  c #B95701",
"d  c #B34C01",
"f  c #8D621C",
"g  c #99661B",
"h  c #93600F",
"j  c #A96106",
"k  c #A76717",
"l  c #B56D12",
"z  c #B37117",
"x  c #865827",
"c  c #955B24",
"v  c #875E3A",
"b  c #886326",
"n  c #996B27",
"m  c #9B7729",
"M  c #8A6738",
"N  c #976938",
"B  c #9A763A",
"V  c #8C722C",
"C  c #A76C28",
"Z  c #A8732B",
"A  c #A87838",
"S  c #B57A38",
"D  c #B47728",
"F  c #C75801",
"G  c #D55D01",
"H  c #E05F01",
"J  c #C86603",
"K  c #DC6302",
"L  c #DB6901",
"P  c #D56502",
"I  c #D97901",
"U  c #E36401",
"Y  c #E46D01",
"T  c #EC6C02",
"R  c #E96501",
"E  c #F26C01",
"W  c #E47201",
"Q  c #EB7401",
"!  c #ED7A01",
"~  c #E67B01",
"^  c #F37301",
"/  c #F37A01",
"(  c #FA7D01",
")  c #C07524",
"_  c #835C43",
"`  c #895F46",
"'  c #8B6146",
"]  c #8B644B",
"[  c #8D6B4B",
"{  c #91664C",
"}  c #936C4E",
"|  c #9A6C46",
" . c #98764A",
".. c #8D6D51",
"X. c #8A6653",
"o. c #936B52",
"O. c #9B6C54",
"+. c #9C6F59",
"@. c #936B55",
"#. c #957252",
"$. c #9B7455",
"%. c #9C7A55",
"&. c #9C745B",
"*. c #9D7A5B",
"=. c #95735A",
"-. c #8F7053",
";. c #A77848",
":. c #B57C46",
">. c #A46E54",
",. c #A26E58",
"<. c #A47355",
"1. c #A3755C",
"2. c #AB755B",
"3. c #A57A5C",
"4. c #AA7C5D",
"5. c #A87856",
"6. c #B07D5E",
"7. c #B07C54",
"8. c #A16D43",
"9. c #9D7861",
"0. c #A57B62",
"q. c #AB7D63",
"w. c #A67B65",
"e. c #B37C63",
"r. c #A7843A",
"t. c #B88539",
"y. c #B5882E",
"u. c #FC8B02",
"i. c #FA8501",
"p. c #F1910A",
"a. c #FFA300",
"s. c #C7933B",
"d. c #CA8A33",
"f. c #E89933",
"g. c #9B8957",
"h. c #9B804D",
"j. c #A7864A",
"k. c #B3834C",
"l. c #B98947",
"z. c #A48253",
"x. c #A4825D",
"c. c #AC825E",
"v. c #AA8955",
"b. c #B4835B",
"n. c #B68958",
"m. c #A79359",
"M. c #B8975A",
"N. c #B39346",
"B. c #A58264",
"V. c #AC8164",
"C. c #AD8A64",
"Z. c #A6826A",
"A. c #AD836A",
"S. c #AD896B",
"D. c #A38D60",
"F. c #B28464",
"G. c #B98566",
"H. c #B48B65",
"J. c #B2856C",
"K. c #BA856B",
"L. c #B48A6C",
"P. c #BA8C6D",
"I. c #BA8B63",
"U. c #A89664",
"Y. c #BD916D",
"T. c #B79868",
"R. c #AE8A72",
"E. c #AD8671",
"W. c #B58C73",
"Q. c #BA8D74",
"!. c #B88B75",
"~. c #B59275",
"^. c #BC9274",
"/. c #B6917A",
"(. c #BC947B",
"). c #BE997D",
"_. c #BA9872",
"`. c #AF9071",
"'. c #B7A468",
"]. c #BBA777",
"[. c #96806B",
"{. c #C68B4C",
"}. c #CB9543",
"|. c #C69747",
" X c #D39849",
".X c #C48D53",
"XX c #C59453",
"oX c #C99456",
"OX c #D69B5C",
"+X c #C8A359",
"@X c #D8A65A",
"#X c #E7A452",
"$X c #C28D6D",
"%X c #C69669",
"&X c #D69D62",
"*X c #C18E73",
"=X c #C58F78",
"-X c #C39474",
";X c #C99477",
":X c #C59A75",
">X c #C99D76",
",X c #C3957B",
"<X c #C9957A",
"1X c #C49A7C",
"2X c #C99D7B",
"3X c #C6A868",
"4X c #D8A46A",
"5X c #CCA27D",
"6X c #C6A778",
"7X c #D5A779",
"8X c #CDB172",
"9X c #D7B379",
"0X c #E2AA65",
"qX c #E8B173",
"wX c #EBC177",
"eX c #BE9981",
"rX c #BD9780",
"tX c #B6A480",
"yX c #C49C83",
"uX c #CA9D83",
"iX c #C59D8A",
"pX c #C79682",
"aX c #C5A285",
"sX c #CBA284",
"dX c #C6A28A",
"fX c #CCA48B",
"gX c #CEA98D",
"hX c #C3AE83",
"jX c #D1A68A",
"kX c #D1A98E",
"lX c #D6AA85",
"zX c #C7B488",
"xX c #CDAA93",
"cX c #CBA994",
"vX c #D2AD93",
"bX c #D3AF99",
"nX c #D5A493",
"mX c #D5B39C",
"MX c #D7B498",
"NX c #D1B58F",
"BX c #E3B88F",
"VX c #D6B5A0",
"CX c #D7C298",
"ZX c #EFC293",
"AX c #DBC7A5",
"SX c #E4C9A5",
"DX c #E0CFB5",
/* pixels */
"P.P.P.P.L.L.S.A.q.0.0.1.1.1.&.1.1.1.1.1.1.3.3.3.0.w.q.V.S.A.A.A.W.(./.W.E.Z.Z.w.0.9.&.&.+.@.@.X.] ] ] ] ] ] ] ] ] ] ] ] ] ] ] ] ",
"P.P.P.P.P.L.J.A.q.w.0.0.1.1.1.3.1.1.1.1.1.1.3.0.q.q.A.A.S.J.W.W.!.(.)././.W.R.A.Z.w.w.9.9.&.=.@.@.X.] ] ] ] ] ] ] ] ] ] ] ] ] ] ",
"P.P.P.P.P.L.L.A.q.0.0.1.1.1.1.1.3.1.1.1.1.3.0.q.q.q.A.A.W.W.Q./.(.).eXeXeX(./.W.R.A.Z.Z.Z.w.0.9.&.=.@.o.X.] ' ] ] ] ] ] ] ] ] ] ",
"P.P.P.P.P.L.L.S.V.0.0.1.1.1.1.1.1.1.3.1.3.0.0.q.q.A.A.W./.(.).yXeXyXyXyXyXyXrX/.(./.R.R.E.A.Z.w.9.9.&.&.@.@.o.] ] ] ] ] ] ] { o.",
"P.P.P.P.P.L.J.S.A.w.0.0.&.1.1.1.1.1.1.3.3.3.0.q.q.A.L./.).1XyXiXdXfXfXfXfXfXdXdXiXeXeX(./.W.R.A.Z.w.w.*.&.&.&.+.@.o.{ o.o.o.} o.",
"P.P.P.P.L.J.S.A.q.q.0.0.1.1.1.3.1.1.1.1.3.0.0.q.A.J.W.(.yXyXdXfXfXxXxXxXxXxXxXcXcXfXdXyXeX/./.W.W.A.A.Z.w.w.0.1.1.1.&.$.O.O.$.$.",
"P.P.P.L.J.S.A.V.q.w.0.1.1.1.1.1.1.1.1.3.0.0.w.q.J.W.(.,XyXuXdXfXxXvXbXvXxXbXbXxXxXxXcXdXdXyXeX/./.!.W.W.A.A.A.V.q.q.q.3.3.1.1.3.",
"P.P.P.L.J.A.V.q.q.0.1.1.1.1.1.3.3.3.0.0.q.w.q.J.L.Q.,XyXuXfXfXgXvXbXbXbXmXbXbXmXbXbXxXcXdXdXyXeX).(.(.!.!.W.L.J.J.J.F.V.V.c.4.4.",
"Q.P.P.L.J.J.A.q.w.0.3.0.0.0.0.q.q.q.q.w.q.q.J.!.Q.,XuXsXfXjXkXvXvXbXbXmXbXmXmXmXmXmXbXxXfXdXaXyXeX).).(.(./.Q.W.Q.W.L.L.L.F.F.F.",
"P.W.P.L.J.J.A.q.q.q.q.q.q.q.q.q.q.q.q.q.V.J.W.Q.,XyXuXfXfXkXvXvXvXbXbXmXmXmXmXmXVXmXmXxXxXfXdXdXyXyXyXyX,X,X(.(.^.^.^.^.P.P.P.P.",
"P.P.L.L.J.A.V.V.q.q.q.q.q.q.q.q.q.q.V.F.J.!.Q.,X1XuXfXfXkXkXvXvXvXvXbXmXmXVXmXmXmXmXmXmXvXxXfXaXyXyXyXyXyXpX1X,X<X,X,X-X-X-X^.^.",
"P.J.L.J.A.V.q.q.q.q.q.A.A.J.V.q.V.V.F.J.L.Q.,X1XuXfXfXkXvXvXvXvXvXvXbXbXmXmXmXmXmXmXmXmXxXcXfXdXiXyXyXyXyXyXyXyX1X1X1X1X<X-X;X-X",
"L.J.S.A.q.q.w.q.q.q.q.A.J.J.J.J.J.J.J.L.Q.^.,XuXsXgXkXvXvXvXvXvXvXbXbXbXmXmXmXVXmXmXmXmXbXxXfXdXdXyXyXyXyXyXuXuXuXuXuX2X1X1X;X;X",
"J.S.A.V.w.q.q.q.q.q.A.J.J.J.J.J.L.P.Q.Q.^.,XyXuXsXgXvXvXvXvXvXvXvXvXvXbXvXbXbXbXbXbXbXxXxXfXdXdXdXiXdXdXdXdXdXfXsXsXuXuXuX2X2X2X",
"S.A.V.V.q.q.q.q.A.A.J.J.W.!.Q.Q.Q.^.^.^.,X1X1XsXfXgXvXvXvXvXvXvXvXvXfXgXgXcXcXbXxXcXxXxXcXxXcXdXdXdXdXfXfXgXfXfXfXgXsXsXsXsXsXsX",
"V.V.q.A.A.A.A.A.A.J.J.W.Q.Q.^.^.(.(.(.,X1X1XyXsXgXgXvXvXvXvXvXvXgXfXMXMXvXlX4X.X7.%.%...#. .H.yXfXdXdXdXfXgXgXfXfXgXgXlXjXjXjXjX",
"q.V.V.V.A.J.J.A.J.W.Q./.(.(.).,X).).,X,X1X1XsXsXgXgXvXvXvXvXvXkXjX=.8 0 [.) E R Y L J l k f , y A -XfXfXdXfXfXdXgXgXgXgXjXjXjXkX",
"A.J.A.A.A.J.J.J.W.W./.(.,X,X1X1X1X1X1X1X1XsXsXgXgXgXvXvXvXkXfXfXsXuX0.8 & X q p G ! W s a z N 4 1 f k.dXcXgXfXfXfXfXfXjXkXkXkXkX",
"A.J.J.A.J.W.W.W.W.Q.(.(.,X1X1XyX1XyXyXsXsXfXsXgXgXgXkXkXkXjXfXfXfXuXjXnX#XI a p d P s .   O Z 5 5 M f n 1XcXfXfXfXfXkXkXkXkXkXvX",
"A.A.A.W.W.!.Q./.Q.(.(.,XyXyXyXaXaXsXsXsXfXgXfXfXsXgXgXfXgXjXfXsXuXuXuXpX#Xa.u.Q G F W a * e l n %.%.M V A fXfXfXfXfXkXkXkXkXkXkX",
"J.W.W.W.!.Q.Q.(.(.(.).,XyXyXsXdXfXsXsXsXsXsXsXuXuXuXuXuXuXuXuXuXuXuXuXiX#Xa.i.! Q G K Y Y L J j n c.z.x.n k.xXdXfXfXfXfXjXkXkXvX",
"W.!.Q.!.!./.Q.Q.(.(.,XyXyXuXsXdXsXsXsXsXsXuXuXuXuX2XuXuXuXuXuXuXuX2XuXiX#Xu.i./ ^ T K K P L P F k  .3.B.z.Z sXfXfXfXfXfXjXkXkXvX",
"!.Q.Q.!.Q.Q.Q.Q.(.(.,X,XyXyXyXuXdXsXuXuXuXuXuXuX1X,X<X;X;X;X<X<XpXpX<XOXa.u.u./ ^ Q T U H K P P J Z :. . .A 2XdXdXdXdXfXgXgXfXgX",
"!.W.!.!./.Q.Q.(.(.(.,X,XpXpXuXyXyXuXyX1X1X1X1X;X<X<X;X<X;X;X;X<X;X%Xn.d.u.u.i.^ ^ ^ T R T R K U U W J g B k.-XyXyXuXuXuXsXsXsXdX",
"W.Q.!.W.!.Q.Q.Q.Q.Q.(.,X,X,X,X,X,X,X,X1X<X,X<X;X<X;X;X<X;X=X;X%Xl.A n  . X( ( ^ ^ E E E E T U G F F F s C k.-XeX1XyXyXyXyXyXyXyX",
"W.W.!.Q.Q.!.!.Q.Q.Q.,X,X,X,X,X,X-X-X-X,X;X<X;X;X;X;X;X<X;X;XoXt.g e y M ;.J U U R T T E ^ ^ ^ ^ Q P F J l s.:X(.(.(.).(.(.(.(.(.",
"W.!.!.W.W.!.!.Q.Q.*X=X=X,X,X*X*X*X;X-X;X;X;X;X;X;X;X;X;X<XoXD g e y n 1 M z G G U T T T ^ ^ ( / ( ( / / / f.(.W.Q.!.!.!.W.W.W.W.",
"J.W.W.W.W.!.Q.Q.*X*X*XQ.Q.Q.Q.Q.*X$X*X*X*X-X-X-X-X-X;X;XXXD r e h y f t 3 ;.s F G L Y W Y Y T T ^ / / ! ( p.L.J.J.J.J.J.A.A.A.S.",
"J.J.J.J.J.K.K.K.Q.Q.K.K.K.K.K.K.K.K.K.K.*XP.$X$X$X*X-X{.z h r e , > * * *.S.C s F F G P L Y L Y L Y / ! / u.b.w.q.w.w.w.w.0.0.0.",
"q.q.q.q.J.J.J.J.J.G.e.e.e.F.e.G.G.F.G.K.G.K.K.$X$X$XXXy.C g u $ * * y x.~.t.z j s d s F P P L W W Y ! Q / u.l.9.&.&.&.&.&.&.&.&.",
"1.3.0.q.q.q.e.q.e.q.q.e.e.e.e.e.e.e.e.e.F.G.G.G.$XoXS y 2 < : + + y n.`.c.A l l a a p p s F F L ! ! Q Q Q i.:.@.O.@.o.o.o.o.o.o.",
"+.+.,.1.1.2.2.1.1.1.2.2.2.2.2.2.2.6.6.6.F.F.e.P.XXg , > * $ + & m l.M.M.v.v.j r w w p p p p d F P ~ p.~ ~ u.8.X.] ' ' ] ] ] { { ",
"O.O.O.O.O.+.,.,.,.,.>.>.2.2.2.2.2.2.4.6.6.4.K..X< : y < + + x |.|.XXn.v.v.j.N r r w w w w p s J d.wXqXp.p.p.] 9 _ _ _ ` ` ` ` ' ",
"O.O.O.O.O.O.O.O.O.,.>.>.>.>.>.<.<.<.2.2.2.e.:.: : 1 * $ b XX0X@XoXXXk.j.v.z.[ B g g k a r j D s.CXDXSX@Xf.n.9 9 9 9 _ _ _ ` ` ` ",
"O.O.O.O.O.O.O.>.O.>.>.<.<.<.>.<.<.<.2.<.4.;.> : $ + $ S #X0X@X|.l.l.A ;.j.z.%.z.%. . .V A 3XhXNXAXAXAXAXMX] 5 5 _ _ _ _ ` ` ' ] ",
"O.O.O.O.+.,.,.,.1.<.1.2.<.<.2.<.<.<.<.2.k.y * # o $ t.@X Xs.s.|.XXl.j.z.h.%. . .h.g.x.U.tXzXhXzXCXNXNXSXB.5 9 v _ _ ` ` ` ] ] { ",
"O.&.&.1.1.1.1.2.4.4.4.4.2.<.1.<.<.<.2.;.1 $ # X X g s.s.}.}.|.|.l.j.B A  . .h.U.D.U.U.T.'.].hXzXzXhXMX`.5 _ _ _ _ ` ` ' ' ] { } ",
"1.1.1.1.1.1.3.q.q.q.4.4.2.2.1.<.<.<.| 2 2 % o # , y.s.s.}.}.s.t.A m A j.v.v.U.U.m.U.D.U.U.].hX].].NXS.5 _ _ ` ` ' ' ] { { { } O.",
"1.1.1.3.3.3.q.q.q.q.q.4.4.4.1.<.$.O.2 1 + . - m y.y.y.s.s.s.t.N.t.r.M.T.m.M.m.m.m.m.g.g.U.'.'.'.].x.9 ` ' ' ] ] { { { } } O.$.<.",
"1.1.3.3.3.4.4.4.4.q.4.4.3.3.1.<.$.;.; .   $ m m N.|.}. X X}.|.|.|.|.+XM.j.m.v.m.m.g.m.m.U.'.'.T.o.` ' ] ] { { o.} o.O.O.<.<.1.3.",
"4.4.4.3.4.4.4.4.4.4.4.3.3.3.1.<.<.&   . + 1 m V m r.r.+X@X X|.|.+X3X+XM.M.m.m.m.m.m.m.'.'.T.x.X.] ] ] ] { o.o.O.O.&.<.1.3.4.4.V.",
"q.q.4.4.4.4.4.3.3.3.3.3.3.3.<.3.v & + $ # 7 V m l.v.v b.%X;.m N.9X8X8X8X3X'.'.'.6X6X_.L.*.@.] o.o.o.{ o.o.O.$.&.1.3.3.4.4.V.F.F.",
"V.V.q.4.4.4.4.4.3.4.3.3.4.4.1.q.:.e $ o ; 4 V n.3.<.3.<.$.O.N x H.6XI.A T._.Y.1X~.0.&.&.&.&.&.&.&.&.O.&.&.1.1.3.3.q.q.V.F.F.J.L.",
"V.V.V.V.V.V.4.4.q.4.4.4.4.3.F.S e $ o # ; b 7.3.<.<.<.<.<.5.q.;.x 1.q.;.t } A.w.w.w.w.w.0.3.9.3.3.&.&.1.1.3.0.q.q.V.V.F.F.J.P.P.",
"V.V.V.V.V.V.4.4.4.q.q.4.4.G.A , $ # # $ M b.4.3.5.5.<.<.1.3.3.q.7.N q.J.b.c <.W.A.A.A.w.w.w.w.0.w.w.w.w.w.q.q.q.V.F.F.F.F.P.P.Q.",
"q.4.V.V.V.V.4.q.V.4.4.V.b.n > # % # ; B b.4.4.4.5.3.1.1.3.4.0.4.A.7.8.J.!.P.A 3.W.E.A.A.A.Z.q.q.q.q.q.V.V.V.V.q.V.F.F.F.F.L.P.Q.",
"4.4.4.4.4.q.4.4.q.q.F.7.b : # % % 2 ;.6.3.4.4.4.3.4.3.4.4.q.q.V.J.W.F.8.W.).%X{.2X)./.W.S.A.A.A.A.A.A.A.A.A.A.A.V.V.F.F.F.L.P.Q.",
"4.4.4.4.4.q.4.q.V.F.;.u - # % ; 1 7.4.5.4.4.4.4.4.4.4.4.4.V.F.F.L.W.,X-X| I.&XqXZXMXZ./.!.W.W.W.E.J.A.S.A.A.A.A.A.V.V.F.F.L.P.^.",
"4.3.3.4.4.4.c.V.c.N 2 # # % - x b.4.3.3.4.4.4.4.4.q.q.F.J.J.L.L.Q.(.N N x < <.| N ;.aXyXW.~.!.W.W.J.J.A.A.V.A.q.q.V.V.V.F.J.Q.^.",
"3.4.4.3.4.4.c.F.B - o o % - b b.4.4.4.4.6.6.6.F.F.F.F.F.L.P.P.Q.^.(.| :.N 6 3 b.4XOXSX%.R.(./.Q.W.W.J.S.A.V.q.q.q.q.q.q.V.F.L.P.",
"4.4.4.4.4.c.V.F.v.| <.3 4 ;.G.F.6.F.F.F.F.F.F.F.F.P.P.P.Q.Q.^.Q.(.lXZXA c N x x 4X&XNX1X).).(.(./.W.J.S.A.q.w.q.q.q.q.q.q.V.F.J.",
"q.q.4.4.V.F.F.F.L.P.P.$X$XP.F.I.F.F.G.G.G.K.P.P.P.P.Q.^.^.-X,XyXlXqX3 < qX8.n.k.& %XSX).,X).(././.!.W.A.V.w.0.0.0.0.0.q.q.q.V.F.",
"4.c.c.F.H.L.L.P.P.P.P.P.P.P.P.P.P.P.P.P.P.P.P.Y.^.^.^.-X,X,XvX2X%X6 @ OX%XN A l.| 3 xX).).(.!.~.!.W.W.A.V.w.0.0.3.3.3.1.3.3.q.V.",
"c.F.F.H.I.P.P.Y.Y.Y.^.Y.^.^.P.Q.P.Q.Q.Y.-X-X-X-X-X,X<X<X,XjXI..X| @ OX&XC @X{.XXqX%.X.).(./.W.W.W.W.S.A.V.0.3.3.1.&.&.$.1.3.4.V.",
"F.H.H.P.Y.Y.-X-X-X-X-X-X;X-X^.-X-X-X^.-X-X-X;X,X-X,X1X,XgX7X:.x = &X{.C 0XOX.XXX9XkX(.~.(.!.W.W.L.L.S.A.B.3.3.%.&.$.$.$.$.1.3.q.",
"P.P.Y.Y.Y.-X:X:X:X:X1X:X1X1X,X<X-X-X^.,X-X-X;X:X1X1X^.fXvXn.A * n A C  X{..XXX&X5X).).(./.W.W.L.S.S.A.B.x.*.%.$.$.$.$.$.$.1.3.4.",
"Y.Y.-X-X:X:X>X:X>X>X>X2X2X2X1X2X1X-X-X-X-X<X;X,X<X,XgXSXb.A = @ i c {.S S l.4XlXeX).).(.!.W.W.S.S.B.B.3.%.$.$.$.$.#.$.$.%.1.3.V.",
"-X-X-X:X>X>X2X2X2X2X2X5X5XsXsXuX1X1X,X,X,X1X,X,X,XxXVX8.< @ @ c S OX&X{.{.7X5X).).).(./.W.W.S.S.B.3.%.$.$.#.#.#.$.$.$.%.3.x.c.C.",
"-X:X:X:X2X2X2X2X2X2X2X5X5XsXsXyX1X1X1X1X1X1X1X(.gXBXc.> * * k {.4XS Z {.4XlXeXyX).(./.!.W.S.Z.B.3.%.$.#.#.} } #.#.#.$.%.x.x.C.C.",
"-X:X:X>X2X5X5X5X5X5X5XsXsXsXsXsXyX1X1X1X,X1X,X(.MXn.< * @ C C oX0XS l.&X4XyXeX1X(.~.W.W.A.Z.B.3.*.$.=.#.o.} } } } #.$.3.x.C.C.C.",
":X:X>X5X5X5X5X5XsXsXsXsX5X5XsXsX1X1X1X1X,X,X,X(.7XN @ * S t.{.l.c {.qXlX1XyX).).(.!.S.A.Z.B.0.*.$.#.o.o.o.} } } } #.%.x.c.C.C.H.",
">X>X>X5X5X5X5X5XsXsXsXsX5X5X>X>X1X,X1X,X:X,X(.lX7Xx * {.S C t.t e C 7XsX).).).(.~.W.S.Z.B.9.*.&.#.o.........} #.#.%.%.x.c.C.C.H.",
":X>X>X>X2X5XsX5X5X5X5X1X>X>X:X:X,X(.(.,X-X(.fX>X4 * C A i C n y y k.6X(.eX).).(.~.R.A.Z.w.*.&.=.-...........} #.#.$.3.x.x.C.C.H.",
"2X2X:X:X:X2X2X5X>X2X>X,X:X:X_._._.^.^.-X_.sX5X< + ;.u h S A n Z .XBXsX).).(.)./.W.R.Z.w.9.&.=.#.............} #.#.$.%.x.x.C.C.C."
};
