/* XPM */
static char *_381a32b9c064cc5a5643835112eb075pOlV5kGiUKEhwzDh[] = {
/* columns rows colors chars-per-pixel */
"64 64 242 2 ",
"   c #241E29",
".  c #2F3538",
"X  c #32373B",
"o  c #343A3C",
"O  c #383936",
"+  c #302D2F",
"@  c #16111E",
"#  c #423E36",
"$  c #3E403D",
"%  c #3F401E",
"&  c #5A6719",
"*  c #626F1A",
"=  c #545C25",
"-  c #464539",
";  c #4C5738",
":  c #525D39",
">  c #4A4A29",
",  c #5A6725",
"<  c #59663A",
"1  c #697829",
"2  c #6A7637",
"3  c #6B7131",
"4  c #595E1E",
"5  c #353C41",
"6  c #3C3E41",
"7  c #493947",
"8  c #3C4349",
"9  c #494644",
"0  c #4A4B45",
"q  c #4C4E4A",
"w  c #454645",
"e  c #524D47",
"r  c #4D514C",
"t  c #4C5245",
"y  c #52534E",
"u  c #555644",
"i  c #4E5350",
"p  c #4F595D",
"a  c #545453",
"s  c #5A5654",
"d  c #565955",
"f  c #5A5B56",
"g  c #565A5A",
"h  c #5B5D5B",
"j  c #58565B",
"k  c #514B52",
"l  c #645B58",
"z  c #6B5454",
"x  c #5E615C",
"c  c #5E6455",
"v  c #5C654A",
"b  c #697646",
"n  c #737E48",
"m  c #62635C",
"M  c #656858",
"N  c #697757",
"B  c #717E57",
"V  c #706854",
"C  c #545D63",
"Z  c #5C5D63",
"A  c #5A5F6A",
"S  c #575D69",
"D  c #645B65",
"F  c #735D6B",
"G  c #5B6265",
"H  c #5B636B",
"J  c #566167",
"K  c #5B6572",
"L  c #576778",
"P  c #4F6175",
"I  c #636364",
"U  c #62646B",
"Y  c #6A6B6C",
"T  c #696966",
"R  c #776867",
"E  c #6F746D",
"W  c #6C7865",
"Q  c #747A69",
"!  c #6D6E73",
"~  c #666978",
"^  c #776B78",
"/  c #6E7174",
"(  c #6F737B",
")  c #71747B",
"_  c #767977",
"`  c #836D66",
"'  c #877569",
"]  c #876979",
"[  c #877978",
"{  c #997C77",
"}  c #97766F",
"|  c #A27E76",
" . c #85556F",
".. c #76891A",
"X. c #778828",
"o. c #7C932B",
"O. c #768938",
"+. c #738A2E",
"@. c #768647",
"#. c #778658",
"$. c #7E9350",
"%. c #74826C",
"&. c #788769",
"*. c #7A847B",
"=. c #7C8A7D",
"-. c #798675",
";. c #88992B",
":. c #929B2C",
">. c #869A35",
",. c #949C34",
"<. c #979D3B",
"1. c #858A35",
"2. c #98A42D",
"3. c #8CA235",
"4. c #8CA339",
"5. c #9BA23B",
"6. c #96A737",
"7. c #9AB12F",
"8. c #A2AD39",
"9. c #A7B33D",
"0. c #82941C",
"q. c #8E954C",
"w. c #98AA44",
"e. c #9DAC54",
"r. c #A5B242",
"t. c #A9B545",
"y. c #A9B848",
"u. c #B1BE4A",
"i. c #A8B953",
"p. c #A5AF4B",
"a. c #84946A",
"s. c #87857B",
"d. c #98857B",
"f. c #849379",
"g. c #969A6D",
"h. c #A4837B",
"j. c #A7AF70",
"k. c #9CA76F",
"l. c #B0C352",
"z. c #B9CA6A",
"x. c #ABC23C",
"c. c #556983",
"v. c #5A6C84",
"b. c #576B87",
"n. c #5D728A",
"m. c #5F7290",
"M. c #687689",
"N. c #777987",
"B. c #667A95",
"V. c #7C7F90",
"C. c #887986",
"Z. c #967888",
"A. c #8F7A8F",
"S. c #AA7B94",
"D. c #A77B90",
"F. c #7D8A83",
"G. c #7A8489",
"H. c #6C829B",
"J. c #7C8493",
"K. c #7C8A9C",
"L. c #788596",
"P. c #7F9185",
"I. c #798CA5",
"U. c #7C93AA",
"Y. c #788FB1",
"T. c #7C93B4",
"R. c #7C97BA",
"E. c #7F9BC2",
"W. c #818D83",
"Q. c #828D8B",
"!. c #898588",
"~. c #988888",
"^. c #839285",
"/. c #85938C",
"(. c #8A978B",
"). c #98938C",
"_. c #838C93",
"`. c #838D9B",
"'. c #898896",
"]. c #948C9B",
"[. c #988A96",
"{. c #8A9594",
"}. c #8D9A94",
"|. c #86919C",
" X c #8A959B",
".X c #8E999B",
"XX c #869293",
"oX c #979699",
"OX c #A58B87",
"+X c #A7958A",
"@X c #B2948A",
"#X c #A58A98",
"$X c #A3949C",
"%X c #A59B9C",
"&X c #A99797",
"*X c #B49A99",
"=X c #B48994",
"-X c #94A19A",
";X c #A7A69A",
":X c #B3A29B",
">X c #B1B491",
",X c #8593A3",
"<X c #8B95A3",
"1X c #8E99A5",
"2X c #8295AB",
"3X c #8D98A9",
"4X c #9C9CA4",
"5X c #9C9CAC",
"6X c #9796A5",
"7X c #8499B3",
"8X c #8399B6",
"9X c #9992A7",
"0X c #AB8DA3",
"qX c #A494A2",
"wX c #AB9CA3",
"eX c #A89BA8",
"rX c #B69AA7",
"tX c #AD97AE",
"yX c #9CA4A6",
"uX c #8AA1BB",
"iX c #9DA1B2",
"pX c #AAA3AA",
"aX c #B5A7A8",
"sX c #B8B5A9",
"dX c #A6A7B6",
"fX c #B8A9B5",
"gX c #BBB6B8",
"hX c #C49BB1",
"jX c #C5B6B8",
"kX c #C6ABB9",
"lX c #C6C9B2",
"zX c #829EC6",
"xX c #8AA4C2",
"cX c #B9AAC3",
"vX c #B9B7C9",
"bX c #B3B7CC",
"nX c #C9B9C6",
"mX c #C7BDCE",
"MX c #C7C4C8",
"NX c #C3C2D7",
"BX c #DAC5CF",
"VX c #BCC0BF",
/* pixels */
"zXR.E.xXI.H.B.H.B.n.n.v.v.v.c.c.L K J C C G h h d a d d d d s a d a q q e 9 9 9 w 9 9 9 0 0 0 0 0 r 0 q i r i a a d j d r q r r ",
"zXR.R.xXY.I.H.B.H.B.B.n.v.v.c.c.L L J H H Z h h h g d a a d s a a q q q 0 9 9 9 9 0 0 0 0 0 0 0 q r q r i i i a a d s a r q r r ",
"zXR.R.xXT.T.I.B.H.B.B.B.b.c.L v.L L S H U g g h h h h h d h h s a r q q 0 9 9 0 9 0 0 w 0 0 0 0 r q q r i r r i a a a a q q r r ",
"zXR.R.xXU.U.I.n.n.b.B.n.v.v.c.c.P L K N.G.Y I h h h h h s s s s a y r r 0 9 9 0 9 0 0 0 0 q q q q q q q i r q i a a k a y y r r ",
"zXR.R.uXI.H.H.n.b.c.n.n.c.b.b.L P L L J.<X!.N._ Y D D I l s f l s a a y e 0 0 y q q q q r r q q q y r r a a r i a a a a d d a a ",
"R.R.R.xX7XI.I.I.I.H.H.B.c.b.b.c.b.L P M._.'.].].].!.!.!._ T l s s s s y 0 - 0 e 0 0 0 q r r r r q y r y a a r a a a a a s d a a ",
"Y.8XT.xXuX7X7XuXuXI.H.B.b.b.b.c.L L L ~ V.'.'.'.[.].oX$XoX~.!.[ T T m l u e e u e 0 0 q a a a a e y r y a i r i a y y a a a a a ",
"T.8XY.uXuXU.2X2X8XB.B.B.b.c.b.b.L L L ~ N.C.'.].[.[.oX[.oX&X&X).~.~.d.' R V V M l s a y a k k a a y y y d a r a a a y a a a a d ",
"Y.R.8XuXuXI.B.I.I.B.B.B.b.b.c.c.L L K K U ( N.C.].].[.wX#X#X&XOXOXOXOXOXd.d.~.~.~.[ [ [ [ ^ ^ [ [ T e a h r r a a a a a a d d d ",
"Y.T.R.8XxX7XI.I.U.I.U.H.c.c.c.c.L L K K ~ N.'.'.].9XqXwX&X&XOXOX@X{ d.{ OX&XOX+X&X&X*X$X$XwXaXwX%Xs.s y d r y y d d d a d d d d ",
"T.T.Y.8X8X7XI.U.I.I.U.B.c.c.c.c.L L K K ~ N.C.N.N.C.qXqXrX&XOX@XOX| h.h.@X@XOX&X&XrX$XaXrX#X$X#X).[ s a f a d a y a a a a a a a ",
"R.T.Y.8X7X2XI.U.H.B.H.M.L v.v.L K K K K K ~ ( ~ U N.eXwXrX+XOX@X} | } @XOXOX*XrXrXrXrX#X[.#XOX] [ _ h h x y a r y a a a d d d d ",
"R.T.T.8X7X2X2X2XI.L.B.B.v.L L L K H S S S ~ N.V.'.9XfXfX*X~.OX| | | } @XOX@XhXrXrX~.0XZ.Z.Z.] R [ ^ l h x d f f s f h h h h h g ",
"T.T.7X7X7X2XI.K.2XK.L.M.~ K K K H S H H A ~ V.'.dXdXpXaX#XOXOX} | | h.@XOX*XrXwXC.A.rX#X] ] F F [ R s h m h x x h h h h h h g g ",
"T.T.T.T.U.I.K.K.,XK.N.M.~ J J H G H H H ~ N.'.J.6X9X4X$X#X+XOX} } | @XOX@XaXaXrXA.^ C.#X] F z ] ~.I s s s s a a f f h s d h g g ",
"8XU.U.I.I.I.,X,X<XJ.M.~ ~ H H C G G G S ~ _.|.J.'.].9X$X#X*X{ } d.@X@Xd.*XaXfXrXC.7 7 ] #X] ] ] [.l s h s h d h f f h s d h h g ",
"T.8X7XU.I.K.K.J.J.N.( ! ! U S Z Z U Z U ~ '.6X<X'.'.].qX#XOXOX{ OX:X+XOX*XrX&XrX[.] R F D z ] ] ).m d s d h h h x h s d d s h h ",
"T.7X7XU.I.K.J.N.N.) ( / ! Y U Z Z U Z U U _.5XiX6X9X9X[.[.{ h.h.OX+XOX&X&X&XpX$XaX$XZ.] D z A.$X!.x s s d h s x h h s d s s s s ",
"U.2X7X2XI.J.G.N.N.) ) ) ! Y I g Z D Z I U !.iXdXdX5X9XA.#Xd.d.d.OX} ~.*X&X#X~.~.~.~.A.A.C.C.9XeXY f s s s h d x h h f f f f s s ",
"I.U.2X2XK.J.N.N.N.) ) ) ! Y I g Z h g I U N.4XeXdXiXdXqX$X[ ' { { ~.~.~.#XwX~.[.[.[.[.].4XoX4X'.h f s d h h d x x x h h h h f s ",
"I.,X2X,XK.J.N.N.N.N.) ! ! ! T I g h g Z I / '.6XN.D ^ ].eX[ R ' ~.aXZ.~.qX$XqX[.[.$XqXeXpXpXdXoXh f s d x x d h x x h x x x h h ",
",X,X,X`.K.J.J.V.N.N.( ! ! Y T I h d h x Z Y '.4XD @ @ Z $X[.[ [ wXfX[.fXgXwXpXeXqXfXfXfXfXpXdX'.h x d d x x f h h h h h x m G x ",
"|.|.|.`.K.K.J.J.N.N.( / ! Y T I h d h h I U '.4X!   @ 5 '.].!.].].].C.!.[.fXgXgXfXgXfXpXpXfXfX!.h h d d h h h h h h h h h x Z h ",
"|.|.|.`.`.`.J.N.N.N.( / / Y T I x d d g Z U !.].C.7     !.9X].'.!.( +   X j '.pXjXjXaXaXwXeXoXD h s d s h f h h h h h g h Z Z g ",
"|.|.|.`.`.J.J.J.V.N.) / ! Y T I I g h Z Z U N.'.'.V.U U '.5X].'.'.k   @     T %X&X&X*X%X%X%X^ j h h g d g h h h h h h h Z Z Z g ",
" X|.|.`.`.'.J.J.N.N.) / ! Y T T I h j Z U ! '.].!.].6X6X].5X5X].'.k     + 7 ).*X~.~.).).~.C.T Z I G h h h h x x h h h Z Z S S S ",
" X X|.`.`.`.J.J.N.N.) / / Y T T I I a Z A N.6X6X6X9X9X5XcXvXcXdXC.^ C.s e [ aX&XOX[ s.!.!.! G H H G G G G G G G G G G G G H H H ",
"<X X|.`.`.`.J.J.N.N.( / / Y T I h I g S A _.5X6X5XdXiX5XcXmXvXcXtX$X$X[.$X).OXOX~.d.s.!.!.Y H H H H H H G H H G U H H H H H H H ",
"<X<X<X`.`.`.J.J.G.N.( / ! Y I I h m I Z H 6XiX5XiX5XeX5X9XdXcXtXtXfXaX$X&X~.d.~.{ ~.~.s.! H H K K K H H H H H H H H H H H K H H ",
"<X,X<X,X`.`._.J.G.N.) / ! Y I m h h I C ( iXdXiX5X5X5X].^ D ^ '.gXpXfX%X&X#X[ d.d.~.~._ I H K L K K K K K H H H H H H H H K K K ",
"3X<X,X,X|.`._.J.G.N.) / ! Y I m h s h G _.dXdXdXiX5X].].].C.C.tXeXpXpXgX%X[ ~.s.d.d.s.R I ~ K K K K K K K K H H H H H K K K K K ",
"3X<X,X,X,X|._.J.G.N.) / ! Y I m l f h / iXbXbXbXdXdX5X].].].].].oXoXoX%X).~.d.s.[ ' s.T I H S K K H H H H H H H H H H K K K K K ",
"3X<X<X,X|.`._._.G.G._ / E Y I m h f I _.bXbXbXbXdXdX4X4X4X6X9X].'.].XX!.!.~.` R ` ' !.I I G H H H G G J G G H H H H H H H K K K ",
"3X3X<X<X|.|.`._.G.G._ _ E Y I m h f Y iXbXbXvXNXvXdX5X1XpX4X4X9X4X'.C.[ ^ [ { ~.d.' [ m m G G Y G G G G J G G G H H H H H H K K ",
"1X3X1X<X<X|.`._.G.G._ _ / Y I m f a Y dXbXNXNXNXNXvXdXoX4XpXtXeXoX!.'.!.[.rXaXaX:X&X~.T f I Z G G G G G G G G J G G H H H H K K ",
"1X3X3X<X<X|.`._.G.G._ _ E T m x h a Y iXbXNXNXvXmXmXvXfX].pXeXpXfXnXmXnXnXjXjXaXaX:X&X_ l I Z G G G G G G G G G J G H H H H K K ",
"1X1X3X<X<X|.`._.G.G._ _ E T m x f r Y yXvXmXcXcXnXfXgXMXqX6XpXvXmXBXnXnXBXkXnXjXaX:X*X' R l h G J J J J G G G G H H H H H H H H ",
"1X1X1X<X<X|.`._.G.G._ _ E T m x d i Y dXvXcX0XrXhX0XfXnXfXoXfXgXgXkX0XrXkXkXBXjXsXaX+XR R R l d J J J C C J J G H H H J H H S S ",
"1X1X1X<X<X X|._.G.G.*._ E T I x h d N.gXfXfX0X0X0X0XfXnXkXqXfXqXtX0X0XhXrXhXBXjXaXaX~.z V ' T d C C C C C C C C H J J J S S S S ",
"1X3X1X<X<X X|._.Q.G.*._ E T m m h a !.pXtX0X0XZ.Z.#X0XnXnXeXtX0XD.z  .=XS.hXnXjXaX:X} z V ' l a g p p g C C C C C C C S S S H H ",
"<X<X1X1X<X X|._.Q.F._ _ E T m m h y _ eX[.#XZ.S.Z.] #XkXkXwXeX[.] ] S.D.S.hXkXjXsX&X` z ` ' l - 8 8 o o 8 8 q w 8 8 8 8 w w 8 8 ",
"<X<X1X1X<X X|._._.F.*._ E T m m f a ! oX[.~.#XrXrXD.rXfX$XqXqXA.#XrXhXS.D.rXaXfXjX).R z ` ' V # $ 5 o X 5 5 8 5 5 5 5 X 5 o X 5 ",
"<X<X1X1X1X X|.XX_.F.*._ E T M m c y x ).wXZ.D.S.D.] 0XrX!.4XeXoXrX=XS.=X=X#X#XgXaX[ R R ' ' V - O o o X o X o . o 5 5 X o . . o ",
"1X1X1X1X1X X XXXQ.F.*._ E T M M M u u _ %X~.Z.{ Z.C.$XeX'.oXeXpXaXrX#X] Z.#X$XaX).R ` ` } ' V u - O O o o o o . X o 5 o 5 o X X ",
"1X1X1X1X1X X XXXQ.F.*.Q E W M M s e t f -.s.~.).).[.!.'.XX!.).[.$XwXwXC.C.%XaX%Xs.R ` ' d.' ` l - + O + + + . X . X X X o o o X ",
"1X1X1X1X1X X|.XXQ.F.*.Q E W M M c u u - t u u u E W._ _ W._ !.s.s.*.{.oXqXoX%X).!.[ ' ' d.} ` V 0 + O O + + + + . X . . X o o o ",
"1X1X1X1X<X X|._.Q.F.*._ E W M M v u : ; ; ; - - M -.=.=.F.*.=.=.(.^.Q.{..XoX{.W.).s.s.d.OXd.' R l - e - - - - O O o o . X o X X ",
"1X1X1X<X X|.XX_.Q.F.*.Q W W N M M u ; < : ; ; u Q s.=.=.-.F.=.^.P./.F.XX}.}./.oXoX).).+X+X+Xd.' V e u - # 0 0 - $ 9 w O 6 6 o o ",
"1X1X1X X XXXXXQ.Q.F.-.Q W W N c c v u : : ; ; M %.=.^.F.F.F.W.W.^././.(.}.-X.X.X4XpXpX;X;X+Xd.d.R u - # # - e e - - O O X w 6 O ",
"1X1X1X.X{.XX/./.Q.F.*.Q W W N c v v < : < : ; : N &.=.=.F.F.f.W.W.^.(.}.}.-X-X4XyXyXfXaX%X&X:X+X' : > > > # > > > > > - # 9 - O ",
"1X1X1X.X{.{.XX/.Q.F.*.Q Q W N M v < = = , , = = b B %.-.-.-.&.&.-.f.^.(.(.}.-X-XyXyXsXsXaX:XaX+Xa.q.q.1.2 3 2 3 4 = = > > > > % ",
"1X1X.X.X X{.XX/.Q.F.-.-.Q W N N b < , , & & & , < N W W %.&.%.%.%.=.f.^.^.(.}.}.}.-X;X;XsXaX&Xd.a.q.q.p.w.,.w.q.w.q.q.q.@.2 3 3 ",
"<X<X.X.X.X{.{./.Q.F.-.-.%.Q N N b < , * & & , , < N %.%.%.%.%.&.-.f.f.^.^./.(.(.^.).;X;XaX%X).).d.n 1.1.,.:.<.<.,.,.,.<.5.w.5.w.",
"<X.X.X.X.X{.{./.Q.W.-.-.%.W N N < 2 3 & & * 1 3 b &.=.-.%.Q %.&.f.f.f.^.^.^.^.^.(.).;X;X%X~.oX%X+Xg.q.1.;.;.,.;.:.:.:.:.:.:.:.:.",
".X.X.X.X.X}.{./.Q.F.-.-.%.B N b b 2 , & * 1 1 2 @.&.f.f.-.%.%.#.&.a.a.a.a.a.a.a.f.f.;X).).~.%XpXaX;Xg.q.<.;.;.<.,.,.,.:.,.:.,.:.",
".X.X.X.X.X}.{./.W.=.-.&.%.B N b b 2 , * X.X.1 1 @.a.f.f.f.a.#.n #.#.a.$.#.#.$.#.a.g.).(.;XpXaXgXaX>Xg.1.,.:.,.,.,.,.5.:.<.,.<.,.",
".X.X X.X.X{.{./.W.=.-.%.B B B b 2 , & X.>.o...X.O.@.$.g.a.$.@.2 @.O.@.O.1 1 +.2 b a.;XgXgXnXlXsXsXk.q.,.2.2.6.5.<.<.5.5.<.<.<.<.",
".X.X.X.X}.{./.^.^.=.%.%.B #.@.b 1 * X.>.;.;.....+.O.@.$.$.q.$.O.O.O.o.+.X.X.X.+.2 g.sXgXMXnXgXsXsXj.w.6.2.2.2.5.5.5.5.5.5.5.<.<.",
"{.{..X}.}.{./.^.W.=.%.&.#.#.n 2 & 1 >.6.;.0.....o.>.q.>.>.w.w.w.o.o.o.o.o.o.o.+.q.>XgXvXmXvXgXgX>Xj.p.r.8.2.6.9.8.5.5.6.6.6.6.6.",
".X.X.X.X}.{./.W.=.-.&.#.#.@.2 1 1 >.4.:.3.;.....X.o.>.o.>.4.6.3.;.;.;.>.;.;.3.>.q.k.sXvXmXNXMXlXj.j.p.r.9.8.8.8.9.9.8.8.8.8.8.8.",
"{..X{.{.{.(./.^.=.-.&.#.#.n 3 1 >.6.6.;.3.;...;.o.o.>.>.>.4.3.;.3.3.3.4.4.3.6.w.q.k.sXMXMXMXlX>Xk.i.y.r.9.r.r.8.r.9.9.r.r.9.8.8.",
"{.{.{.}.}.(./.^.f.-.&.#.n 2 3 O.w.6.6.6.6.4.3.>.;.>.>.>.>.3.3.3.3.3.4.4.3.3.6.r.w.q.j.>XsXlXlX>Xi.i.y.9.9.t.t.9.9.9.r.r.r.r.9.9.",
"yXyXyXyX-X(.^.^.f.&.&.B n 2 1 1.r.6.6.r.w.r.p.p.w.w.w.w.6.w.w.6.6.6.3.4.4.3.7.y.l.w.e.q.g.j.j.e.i.u.u.t.t.t.y.y.9.9.t.t.t.t.9.9.",
"yX.XoXyX-X(.^.^.f.&.&.B n 2 1 >.>.6.6.6.w.r.p.i.i.i.l.i.y.i.i.r.6.6.4.4.6.6.7.x.l.l.z.i.e.j.i.l.l.u.u.u.u.y.u.u.u.t.u.t.t.t.9.9."
};
