/* XPM */
static char *_c286b1e9b6d42f5c15ebfcb5ee19cb3nsS81XrLJzmIOVCb[] = {
/* columns rows colors chars-per-pixel */
"64 64 256 2 ",
"   c #190803",
".  c #0F0C08",
"X  c #2A1908",
"o  c #2F180D",
"O  c #372716",
"+  c #362713",
"@  c #1A2527",
"#  c #1E303A",
"$  c #252B29",
"%  c #3C3526",
"&  c #2A363B",
"*  c #313131",
"=  c #131E21",
"-  c #462B16",
";  c #4B321B",
":  c #523717",
">  c #633F19",
",  c #483927",
"<  c #543B24",
"1  c #563B25",
"2  c #463D34",
"3  c #51312E",
"4  c #633D31",
"5  c #3B4238",
"6  c #5B432C",
"7  c #584127",
"8  c #4A4438",
"9  c #5A4937",
"0  c #534935",
"q  c #65462C",
"w  c #644B33",
"e  c #674C37",
"r  c #6C533B",
"t  c #695439",
"y  c #775839",
"u  c #7A522A",
"i  c #6D4A1E",
"p  c #273949",
"a  c #343E44",
"s  c #2A3E53",
"d  c #394549",
"f  c #394A55",
"g  c #344855",
"h  c #3D5367",
"j  c #454948",
"k  c #595748",
"l  c #495659",
"z  c #565A57",
"x  c #4C4B4C",
"c  c #6C5B44",
"v  c #675846",
"b  c #735C44",
"n  c #7C5D42",
"m  c #745C46",
"M  c #6A524E",
"N  c #6D614B",
"B  c #74634C",
"V  c #7B644C",
"C  c #7A6447",
"Z  c #6C6354",
"A  c #6D6A5D",
"S  c #696558",
"D  c #746553",
"F  c #7C6A54",
"G  c #736C5D",
"H  c #7A6D5C",
"J  c #766756",
"K  c #7B715E",
"L  c #76705E",
"P  c #475767",
"I  c #525D63",
"U  c #495A71",
"Y  c #586669",
"T  c #576777",
"R  c #546A79",
"E  c #6A6C68",
"W  c #746E61",
"Q  c #796E61",
"!  c #767163",
"~  c #7B7465",
"^  c #7F7966",
"/  c #7C756A",
"(  c #7E7869",
")  c #73756C",
"_  c #646E74",
"`  c #677379",
"'  c #787A77",
"]  c #6E7268",
"[  c #58615C",
"{  c #855930",
"}  c #88623C",
"|  c #99673A",
" . c #A86E3C",
".. c #835E4B",
"X. c #836A4D",
"o. c #8A6949",
"O. c #966D48",
"+. c #9B744C",
"@. c #836C53",
"#. c #886D56",
"$. c #8B7255",
"%. c #83735C",
"&. c #8A755C",
"*. c #897557",
"=. c #947454",
"-. c #97795A",
";. c #907051",
":. c #A87848",
">. c #B47B48",
",. c #A47D57",
"<. c #B27A51",
"1. c #827564",
"2. c #837966",
"3. c #8B7A63",
"4. c #81756A",
"5. c #827A6C",
"6. c #8B7B68",
"7. c #957D64",
"8. c #837D71",
"9. c #867F75",
"0. c #9F7777",
"q. c #73827F",
"w. c #BA834D",
"e. c #A9835A",
"r. c #B88858",
"t. c #BC915E",
"y. c #8E816C",
"u. c #95846B",
"i. c #9B866B",
"p. c #9B8568",
"a. c #8B8374",
"s. c #858378",
"d. c #9D8B73",
"f. c #958B7B",
"g. c #978977",
"h. c #9B9079",
"j. c #A38363",
"k. c #A78968",
"l. c #B78D63",
"z. c #AC916B",
"x. c #B4946C",
"c. c #BB9669",
"v. c #A38D74",
"b. c #AA8D74",
"n. c #AB957B",
"m. c #A89478",
"M. c #B49473",
"N. c #BB9C7A",
"B. c #B69977",
"V. c #BDA37C",
"C. c #B9A276",
"Z. c #AAA17A",
"A. c #96805B",
"S. c #C68B57",
"D. c #CA8F59",
"F. c #C29C6C",
"G. c #C89867",
"H. c #D59A66",
"J. c #C59D76",
"K. c #D49D71",
"L. c #D8A26C",
"P. c #CBA473",
"I. c #C4A47C",
"U. c #C9A679",
"Y. c #D6A878",
"T. c #D7B07E",
"R. c #CAA26F",
"E. c #E8AC79",
"W. c #E3A86D",
"Q. c #5C6E84",
"!. c #687A88",
"~. c #6C7C8A",
"^. c #957C80",
"/. c #798588",
"(. c #788896",
"). c #748A9C",
"_. c #7A90A4",
"`. c #948D85",
"'. c #9A9589",
"]. c #848D95",
"[. c #869299",
"{. c #999B98",
"}. c #888A88",
"|. c #A89A87",
" X c #B39B84",
".X c #A59D94",
"XX c #A69E97",
"oX c #AE9191",
"OX c #9DA09A",
"+X c #BDA585",
"@X c #BAA588",
"#X c #A9A499",
"$X c #B6A999",
"%X c #B3A995",
"&X c #8798A7",
"*X c #969EA5",
"=X c #97A5B1",
"-X c #ABA8A4",
";X c #B3ACA2",
":X c #B7ADA6",
">X c #BAB4AC",
",X c #B7B3A9",
"<X c #ABB5B8",
"1X c #B6B9B8",
"2X c #BA9BA3",
"3X c #C4A682",
"4X c #C3AA85",
"5X c #CCAC85",
"6X c #C6AA89",
"7X c #D4AE85",
"8X c #CCB28A",
"9X c #D4B38B",
"0X c #D9B688",
"qX c #C5AD95",
"wX c #CBB493",
"eX c #C8B599",
"rX c #D7BA95",
"tX c #E6B888",
"yX c #E2BE94",
"uX c #EAAD80",
"iX c #C8B8A5",
"pX c #D4BEA5",
"aX c #C5BDB3",
"sX c #CBACB1",
"dX c #C79E87",
"fX c #BEC0BA",
"gX c #D9C29C",
"hX c #E4C39B",
"jX c #E8C396",
"kX c #EFC495",
"lX c #DCCBAC",
"zX c #D8C5A6",
"xX c #C5C4BD",
"cX c #DDCCB4",
"vX c #DCD3B5",
"bX c #D1C5A6",
"nX c #E7C9A7",
"mX c #E9D1AA",
"MX c #E3D3B4",
"NX c #ECDBBC",
"BX c #E7D7B8",
"VX c #F1D9B7",
"CX c #E6CEB2",
"ZX c #F2E0BC",
"AX c #9BAFC6",
"SX c #ACBBC8",
"DX c #E0BFC5",
"FX c #B7C2C9",
"GX c #C7C8C4",
"HX c #CDD2CC",
"JX c #CED3D1",
"KX c #D4D6D0",
"LX c #EADBC2",
"PX c #EADFCC",
"IX c #F5E6C5",
"UX c #F4E8CC",
/* pixels */
"9.a.8.4.5.8.( ( 5.( ( ^ ^ ^ ^ ^ Q 5./ ( 8.8./ / / / / / ( ! ( 5.~ 2.1.~ 1.5.2.H 4.1.4.4.8.8.( / ! ~ ~ ( 2.2.( ( 5.2.( ~ ~ ( 2.2.",
"5.! 5.8.5.5.( a.5.5.5.( ( ( 2.2.5.( / ( 5.( / ! 8.5./ ! / 5.5.( ~ ^ ~ ~ 1.5.2.%.4.1.4.4.5.5.( ( ! ~ ~ ( 2.2.( ( 2.2.( ~ ~ ~ 2.2.",
"#X! a.a.( 5.W ( ( ( ( ( ( ( ( ( 5.Q ~ 5.Q H 5.6.H Q ~ ~ 4.5.( ~ ~ ^ ~ ~ 4.5.4.~ 4.4.4.4./ / ( / ! ~ ~ ( ( ( ( ( 2.2.( ~ ~ ~ ( ( ",
">XZ G ( ( a./ 9.( ( ( / / / / / ( H 1.1.J 6.|.|.3.%.1.1.1.! ! ( ~ ~ ~ ~ 4.2.4.4.4.4.4.( ( ( / 5.~ ~ ~ ( ( ( ( ( 2.( ~ ~ ~ ~ ~ ~ ",
",Xk k ! / a./ ( ( ( / / / / / / 2.~ 1.%.&.@XpXqX@Xp.@.%.1.H ! 2.~ ~ ! ~ ( 4.4./ 4.( ( ( / ( ( ( ~ ~ ~ ~ ( ( ( ( ~ ( ~ ~ ~ ~ ~ ~ ",
";Xk S ( / ( / 8.( ( ( ( / / / / 2.%.F F k.zXmX8X6Xp.C @.3.5.! ! ~ ! ! ~ ( ( ( 4./ / / / ( ( ( ( ~ ~ ~ ~ ( ( ( ( ~ ~ ( ~ ~ ~ ~ ~ ",
"'.k k ! ! ( s.a.( ( ( / / / / ( %.&.*.-.B.hXhXI.I.k.o.X.%.6.1.H ^ ! ! ~ ( ( ( / ( / / / ( ( ( ! ~ ~ ~ ~ ( ( ( ( ~ ~ ^ ^ ^ ~ ~ ~ ",
"'.k 5 k k Z G Z ( ( ~ ~ ! / / ~ %.p.k.z.I.0X7XJ.7XI.e.y t V 6.6.2.! K ~ ( ( ~ ( ( ! ! ~ 4.2.~ ! ~ ~ ~ ~ ( ( ( ( ~ ~ ( 2.2.^ ~ ~ ",
">Xk 8 k k v 9 N N D J H K 1.1.%.@.z.5X5XJ.U.tXyX7Xe.k.j.r F |.m.2.2.K G ~ ~ Q W ( ( ( ( 2.^ ! K 2.~ ! ~ 2.~ ~ ~ ( 2.2.2.2.~ ~ ~ ",
">Xk k L Z N c V B B F &.%.B B @.j.I.yXjXjXkXkXjXF.l.M.M.7.7.v.v.u.n.h.K J H ~ 5.Q ! ! ( ~ ~ ~ ~ 2.~ ! ~ 2.~ ~ ~ ~ ~ ( ~ ~ ~ ~ ~ ",
",Xk k L J @.@.V $.X.-.b.z.-.7.z.9XjXjXyXkXkXtXtXP.U.J.M.M.k.k.n.@X@Xd.&.2.6.2.! G Q ~ ~ ~ ! ! ~ ~ ~ ! ~ ^ ~ ~ ~ ~ ~ ~ ~ ~ ~ ~ ~ ",
"xXS k K 3.m.n.-.,.-.k.I.3XJ.3XrXjXjX0XT.7XY.P.U.7X9XJ.M.B.M.M.+X4Xz.-.p.m.g.1.H H ! ( ~ ! L K ! ~ ~ ~ ~ ^ ~ ~ ~ 2.~ ~ ! ! ! ! ! ",
"$XS v %.u.6XrXB.e.e.r.c.F.P.Y.T.Y.Y.Y.Y.J.l.l.J.x.k.k.k.k.k.k.k.z.k.j.z.n.i.1.5.H ! ( ( ! ! ! ~ ~ ~ 2.( ^ ^ ~ ~ 2.( ~ ~ ~ ~ ! ! ",
"W v c H 7.4XrXc.t.r.r.w.D.L.L.H.L.G.G.G.:.+.j.x.j.;.;.;.o.o.;.o.+.k.x.k.k.i.7.6.H ! ! ( ! ! ~ ~ ! ~ 2.( ~ ~ ( ~ ( ~ ! ! ~ ~ ~ ~ ",
"0 v D F p.4X7Xt.r.S.S.S.H.W.W.H.H.S.r.:.{ } ,.=.j.;...y y y y u } +.-.;.-.p.7.%.H ! ! ! ~ ~ ~ ~ ! ~ 2.~ ~ ~ ~ ! ~ ! ! ! ~ ^ ~ ! ",
"% v c B 7.3XU.:.w.w.S.D.H.W.L.D.w.w.r.| i } =.r y r q q e q > > q y } o.$.&.&.3.1.~ ~ ! ! ! ! H H ~ ^ ~ ! ! ! ! ~ ~ ! ! ~ ~ ! G ",
"8 8 v C -.J.G. .w. .S.H.H.L.L.r.:.:.:.u i y C N c c v t e 6 1 w q q e b @.X.V 3.3.2.1.H W ! ! W ! ! ( ( ~ ! ! ! ~ ~ ~ ! ! ! ! ! ",
"* 2 v @.e.c.r. .>.D.D.H.uXY.r.<.<.| :.> : C t N O X X , e e < ; e r e e X.-.$.X.&.3.1.J D G ! / ! ! ( ( ~ ! ! ! ~ ~ ~ ! ! ! ! ! ",
"% 8 v *.k.r.>.w.D.H.H.K.Y.Y.K.G.G.O.} y 1 @.u., X     X - < r -.;.n y n n o.y r X.&.3.1.H G Q ~ ! ! ~ ( ~ ! ! ! ! ! ! ! ! ! ! ! ",
"2 8 e X.k.r.>.S.H.H.E.uXK.l.r.e.U.j.y y < V $Xg.e , X + 6 n o.-.j.;.;.o.y } ;.;.C @.&.&.H J H H ! ! ~ ~ ! ! ! ! ! ! ! ! ! ! ! ! ",
"2 8 9 y e.r.S.D.H.E.E.E.Y.<.O.c.dXN...e #.|.6.$X%Xg.e < r =.,.,.=.=.o.} o.N.9XN.-.-.$.@.F V J H ! ! ! ! ! ! ! ! ! ! ! ! W W ! ! ",
"% , 6 y ,.G.H.H.E.E.uXY.r.+.+.e.k.6Xn. Xb.J   X J g.m.u.-.-.-.-.o.{ } -.5XnXrXB.k.k.k.i.i.3.%.H ! ! ! ! ! ! ! ! ! ! ! ! W W W ! ",
"% , t ;.e.G.L.H.E.K.uXY.O.O.o.: o r  XpXv O o X 9 D %.F @.$.;.o.o.y ;.7XVXrXj.=.=.-.v. X@Xv.6.K ! ! W W ! ! ! W ! ! ! ! W G W W ",
", , b j.c.K.L.H.H.K.K.<.O.,.=.7 - 6 qXiX9 2 X o k Z J J F V y y y o.M.nXmXB.X.X.t b &.d.m.d.6.%.! ! W W ! ! ! W ! ! ! ! W G G W ",
"% 9 &.z.l.G.H.D.D.S.<.r.+.j.;.-   r BXPX|.0   % 8 2 M 9 H v O < r 7.k.wXqXn.V - w t F F %.u.6.H ! ! W W W ! ! ! ! ! ! W W W W ! ",
"2 9 %.z.F.Y.E.L.S.<.r.:.O.o.k.*.t Z.bXvXiXG 8 2 $ * O O , o   - r &.k.v.v.t 7 X O 7 J K J H H ~ ! ! ! ! ! ! ! ! ! W W W W W W W ",
"% 9 3.C.U.T.Y.H.>.>.<.O.} y B.zX+XeXbXvXiXa.M   . .   O     o , 1 $.v.u.F + + O X O v G G ~ 1.5.! ! ! ! ! ! W W W W W G G G G G ",
"% N d.C.U.Y.H.S.>. .{ O.,.x.wXBXIXzXMXBX%XQ %     o 8 M     , 9 @.&.t r e 6 ; % % 0 H H D K H H ! ! ! ! ! ! W G W W W G G G G W ",
"8 D y.j.x.P.G.w. .| { <.J.rXVXIXVXgXMXMX|.9 3 x M ^.oXM   + , t C @.r m m v O   X 8 H Z v H 6.a.H ! ! ! ! W W G ! W W W W W W W ",
"8 k D A.I.T.H.>. .| :.l.7XrXZXVXwX+XqXqXM M sXoX2XDXoXO + e < r #.#.@.q < , 9 9 1 v D v 9 D F D H W W ! W W W W ! W W W W W H W ",
"% 8 N z.hXjXH.D.S.| | e.7XrXnX+Xv.#.r 1   3 DXoXoXoX4 o r m 7 n =.n X.w 6 6 c w 6 7 9 9 m &.&.J H W W W W W W ! W W W G G G G G ",
"8 0 D +XmXkXY.uX>. .:.K.c.I.8XN.k...- - 4 M V 0.#.3 o e -.1 7 o.-...n n - < < < 6 , 6 t B #.#.%.H W G G W ! ! ! W G G G G G G G ",
"% 8 y.eXrXjXtXH.>. .:.r.r.e.l.x.e.} { +.J.nXnXqX X;.;.j.o.q u ;.;.C r r 7 o 6 < X o , 9 t F 3.K ! Z ( ! S ! W W ! A A G L H G J ",
"0 v y.@XrXyXY.r.:.>.w.r.:.| | } :.| O.,.l.7XhXyXJ.M.j.=.;.} } o.=.r e n r + ; ; - - 1 e t c F 6.~ A ! ! W ! ] ] W E A G ! ! L G ",
"s.f.'.@XzXhXY.G.w.w.w.:.{ u { { | | O.+.,.c.3XI.x.N.j.=.e.j.+.=.p.o.o.-.-.w < ; ; < e V V c B 6.a.s.8.s.s.' ' ' ) ) ] ) ! ) ! A ",
"`.'.'.|.wXhX0XP.S.w.>.| { { | :.e.t.F.J.U.0XrX9X7X5XN.N.3XM.e.e.z.j.b.p.j.$.r ; < 6 r F @.c t %.aXPXKXKXKXHXKXJXHXHXGXGXGXGXxXfX",
"s.a.f.|.@XrXyXY.G.r.<.:. .:.e.e.r.F.T.0X0XyXhXhXhX5X8X9X5XI.N.M.V.V.B.$.=.-.C 7 1 w e t b t e c f.xXKXHXHXGXKXJXJXJXJXHXJXKXKXHX",
"' ( a.g.d.4XnXhX7XG.r.r.r.t.G.c.Y.tX0X0XyXjXhXhXyX7XrXrX3X5X9X3X3X3XM.-.p.-.X.e < 6 w w b C m c Z {.1X1X,X1X1X<X<X1X1X<X<X1X1X1X",
") s.s.5.y.v.qXmXhXP.c.G.G.G.R.Y.tXtXY.P.0XrX9X9XhXnXhXrX9X5X5XI.N.3Xz.j.B.j.7.n < 1 q r C #.$.V ~ `.aXxXxXGXGX1X1XFXFX1X1X1XSX1X",
"' {.XX'..X|.@XVXnX5XU.T.P.G.R.Y.P.0XT.P.U.Y.7XyX5X0X9X7X9XI.x.N.B.3X-.;.b.k.n.=.e 1 1 w e C #.F H W #XaXxXHXxXxX1XGXGXSXfXGXGXGX",
"-X1X>X;X`.,XeXzXBXgX9X5XJ.P.T.T.yX0XT.P.F.U.U.U.c.0XhX5XN.B.x.3Xz.M.M.z.b.B.B.b.X.< q e e y r @.%.~ g.$XaX>X,X>X-XGX1XaX>X,X-X,X",
"XX,X,X#X'.$X%XeXcXCXnXrX5X0XyXyXjXT.P.R.c.c.I.P.U.rXhX5XI.I.B.3XV.V.V.N.B.B.n.m.#.< 6 q w y r V V J u.$XaXaX>X,X;X1X:X-X.X-X-XaX",
"-X>XaX>X;X,X,XiXpXMXVXnXrXhXnXjXjXP.c.c.c.F.U.U.9XrXrX8X8XwX4X6XwX4X+X+Xn.k.p.k.#.1 7 w t n b X.V V 6.|.iX:X$X#X'.XXGXGXXX-X>XaX",
":X-X,X;X;X,X;X>X$XcXNXMXmXmXnXhX0XP.c.c.c.U.7X0XrXrXrX9XwXrX6X4X8XN.b.B.m.7.&.7.m < 7 r b C C @.V D 2.|.$X:X:XaX;X'.#XXX#XaX;X;X",
";X.X.X{.#X;X#X$X%XiXbXMXNXVXnXhXrXU.C.c.x.I.9X0XhX9XrX8X6X8X+X+X6Xz.p.z.m.i.7.7.e ; 1 e e r b m F J 2.'..X.X.X$X#X:X,X'.#X#X`.:X",
"iX$X.X.X#X>X:X;X#X;X$XbXNXBXnXnXrX8XI.c.c.U.0X0X9XI.5X3XV.4X+X6XwXB.p.k.v.i.7.&.c 1 1 w q q c b J G 5.'.#X'.`.`.;X`.,X>X:X,X#Xa.",
",X$X.X.X'.,X#X#X#X$X#X%XcXNXCXmXgX8XU.I.U.U.0X7XI.x.I.6X4X6X6X+XeX@Xm.i.i.p.&.V m 6 6 e e t m B D A s.#X>X;X#X#X-Xs.,X>X`.'.aX`.",
";X;X.X.X`.:X{.{.OX;X.X|.bXNXBXVXmXrX8X9X8XU.U.I.B.z.4XrXwXwX+Xm.qX6Xn.i.p.i.7.F c 7 7 c m m @.J ! ! s.#X>X-X{.}.<X<X-X{.<X-X-X#X",
"{.'.f.#X;X'.{.{.{.`.|.qXbXBXBXIXBXzXwXrXrX8X4XV.e.z.6XgXpXrXn.n. X@Xn.n.i.%.3.&.t 6 6 t c B H K ! ] `.1XOX<X<X*XSX&X(.=X&X[.SX(.",
"{.OX#XaXaX.X{.[.OX'.|.6XgXmXMXNXNXBXzXzXgX8XI.C.B.B.+XwXbXzXn.m.k.m.n.n.v.3.&.@.b e 9 v c B F K A ] }.<X<X=X=X(.U s s Q.P Q.SX~.",
"/.}.`..X.X{.{.}.].'.|.eXnXzXlXMXBXBXMXlXzXrX8X4X4X4X+XwXwXeX X X7.p.n.m.d.u.@.F B v v c c N J G E E _ /.` d T &XT p U U !.SXSXFX",
"(.{.{.#X-X{.]./._ }.|.lXNXzXlXvXMXBXBXlXbXzXrXrXwXwX+X@X@X@X+X@Xi.i.n.d.u.u.F %.F c c B N D J G S /.~.d a g T ~.!.&XAXAX=X_._.AX",
"T ~.E E `.}.Y ` ~.}..XcXLXlXvXvXBXNXIXlXbXzXrXbXbXpX@X@X@XqX@X@Xm.v.n.u.&.3.F %.J B D H H H H W 9.' ' x ` (.P p h U ~.AX&XQ.).).",
"= f z z E l d ~.=X{.#XMXLXBXBXvXBXMXIXMXlXlXpXzXlXlX@XqXeXeX@Xm.i.d.v.7.%.%.H %.J B D J J H K W ] _ *X*X/.I P ).=XQ.U Q.~.R h U ",
"Q.f @ @ a d g !.].' #XLXLXBXBXvXvXlXZXMXlXcXpXcXzXcXqXeXeXqXn.i.3.d.g.6.@.J %.%.H D D D Z D H W ) ' /./.Y !.[.&X=XAXQ.!.!.p P Q.",
"h f _ ' I a f (.d a .XPXNXBXLXLXBXbXBXlXbXzXiXcXpXBXpXpX@X Xm.d.3.d.u.3.J B 1.K 1.H J Z c Z H W E E j x @ & P # !.!.&X&X!.P ` &X",
"!.&X*XI d & g ).f l #XPXNXNXcXUXBXlXMXBXcXzXpXpXzXiXcXqX@Xv.i.u.u.g.6.%.%.2.2.~ 5.~ H G Z Z G A E ' z $ j d a a l @ Y &X` f f ~.",
"_.&X&X` Y d p g ` Y $XLXlXBXLXIXUXBXbXBXBXBXlXzXpXeXiX@Xm.d.v.m.d.g.6.1.6.y.y.1.1.! ! H Z G W A z z ' _ l d l & d f /.[././.~.Y ",
"!._.&X].` l R _.(._ ;XMXzXBXIXMXUXIXlXMXMXBXlXzXqX@X@X Xi.d.u.v.m.g.y.y.g.h.g.1.~ ( 5.~ G W W S * . $ $ @ a q./.` Y Y Y _ /.(.l ",
"U =XSX(.` P ~._.(._ $XcXmXnXBXcXNXLXNXlXlXzXlXlXwX Xn.n.i.v.7.g.|.h.g.f.|.|.g.~ ! 2.s.~ G W A k S d $ @ & d I ' _ l & d Y Y ~.Y ",
"SXAX[.[.[.d p _ Y z a.qXhX5XrXBXNXvXMXpXBXgXzXgXzX6XB.n.v. X|.|.|.|.f.g.f.f.a.2.! ( 8.! A A S x j j = . = @ @ l /./.Y I f & l d ",
"~._.` j l & # p [.s.h.qXrXM.M.pXLXiX$X@XVXzXrX8XrX4X+X+X@XeX$X%X%X|.f.a.a.a.5.2.~ ( / ! A A k 8 $ $ @ $ $ & d I l /.` _ l @ d l ",
").(.` & @ & _ [.Y z D B.J.j.,.b.iXiX Xm.wXmXgX8XV.C.8X6XqXiXqX%X$X|.f.a.9.5.( ! ! G A A S k 8 $ * & x ' ` Y d @ & Y ` ~.Y & @ & ",
"U R *X/.` [.*X/.Y x D 4XM.,.o.q d.cX$Xp.p.VXmX9XC.V.rX+X@X$X$X%X%X|.f.f.a.8.! A A v k k x 2 $ . . = $ I _ ` I l I ` _ ` ~._ I I "
};
