/* XPM */
static char *_f64e0fd6858445ec2cefebd74a39823RiSGAvafJUmZbEs3[] = {
/* columns rows colors chars-per-pixel */
"64 64 256 2 ",
"   c #06060B",
".  c #09070C",
"X  c #0B090D",
"o  c #060407",
"O  c #120C0D",
"+  c #1A0A06",
"@  c #1C120D",
"#  c #181107",
"$  c #0D0C11",
"%  c #0E0611",
"&  c #120D12",
"*  c #160B14",
"=  c #151214",
"-  c #1C1414",
";  c #1A191B",
":  c #0D1112",
">  c #210D04",
",  c #241204",
"<  c #22130D",
"1  c #2A150A",
"2  c #2C1A0D",
"3  c #271707",
"4  c #321D0E",
"5  c #391A09",
"6  c #251914",
"7  c #2C1C13",
"8  c #231A1B",
"9  c #2B1E1A",
"0  c #261611",
"q  c #321D13",
"w  c #351E16",
"e  c #32230E",
"r  c #2C211A",
"t  c #2C2214",
"y  c #342314",
"u  c #342B13",
"i  c #34241A",
"p  c #3A241C",
"a  c #3B2B1C",
"s  c #372817",
"d  c #3C311A",
"f  c #1D1C21",
"g  c #241E21",
"h  c #361D21",
"j  c #2C2324",
"k  c #282426",
"l  c #342B23",
"z  c #3B2D24",
"x  c #352927",
"c  c #3D3124",
"v  c #3D332A",
"b  c #36362E",
"n  c #3B3534",
"m  c #312B31",
"M  c #461D10",
"N  c #49240C",
"B  c #442A1C",
"V  c #4B2D1B",
"C  c #492713",
"Z  c #532D1A",
"A  c #542C16",
"S  c #42331E",
"D  c #4E331D",
"F  c #52341D",
"G  c #593419",
"H  c #562F0B",
"J  c #64391A",
"K  c #432D22",
"L  c #452C27",
"P  c #443324",
"I  c #4A3424",
"U  c #43352C",
"Y  c #44392E",
"T  c #4A3B2C",
"R  c #4C3629",
"E  c #5B3A24",
"W  c #543B2D",
"Q  c #563826",
"!  c #443C33",
"~  c #4B3D33",
"^  c #463A39",
"/  c #5B3E32",
"(  c #553E35",
")  c #4B2C2F",
"_  c #633D25",
"`  c #603F34",
"'  c #73461B",
"]  c #5D412B",
"[  c #4C423A",
"{  c #4A4136",
"}  c #534335",
"|  c #5C453B",
" . c #584439",
".. c #67442A",
"X. c #764927",
"o. c #7D5129",
"O. c #644433",
"+. c #6B4A34",
"@. c #62463A",
"#. c #644A3D",
"$. c #6B4D3B",
"%. c #6A4634",
"&. c #724D3D",
"*. c #744B35",
"=. c #74523C",
"-. c #7A5435",
";. c #6F523C",
":. c #473D41",
">. c #4C4445",
",. c #574A45",
"<. c #5D5249",
"1. c #5A5254",
"2. c #654D45",
"3. c #6C5143",
"4. c #675549",
"5. c #755444",
"6. c #785A47",
"7. c #665A56",
"8. c #6F524D",
"9. c #796658",
"0. c #6F6454",
"q. c #675D62",
"w. c #776A67",
"e. c #7C746A",
"r. c #7B7375",
"t. c #72676B",
"y. c #89501B",
"u. c #855627",
"i. c #955A28",
"p. c #875A37",
"a. c #965F32",
"s. c #97632C",
"d. c #8A6339",
"f. c #996739",
"g. c #976D31",
"h. c #A36C3B",
"j. c #A56B35",
"k. c #A97639",
"l. c #B2793D",
"z. c #A66B33",
"x. c #815E4B",
"c. c #886447",
"v. c #966A44",
"b. c #9C754A",
"n. c #866B58",
"m. c #997856",
"M. c #8D7055",
"N. c #AA7848",
"B. c #B47A46",
"V. c #A77A55",
"C. c #A77449",
"Z. c #836B65",
"A. c #867668",
"S. c #967B67",
"D. c #877A75",
"F. c #917974",
"G. c #A8823D",
"H. c #AA8248",
"J. c #B88548",
"K. c #A98559",
"L. c #B68858",
"P. c #B8965A",
"I. c #B9934D",
"U. c #8C847B",
"Y. c #988679",
"T. c #998168",
"R. c #AA8868",
"E. c #B58B65",
"W. c #BA9669",
"Q. c #A68B77",
"!. c #AC927C",
"~. c #B99977",
"^. c #AF916B",
"/. c #BCA173",
"(. c #C78C54",
"). c #C59458",
"_. c #C5904F",
"`. c #C69967",
"'. c #C39D74",
"]. c #D19E67",
"[. c #C9A36A",
"{. c #D4A56B",
"}. c #C9A676",
"|. c #D5AA76",
" X c #D7B379",
".X c #CEB26F",
"XX c #E1B47D",
"oX c #C1A45E",
"OX c #937A83",
"+X c #887B81",
"@X c #8D8786",
"#X c #968A88",
"$X c #9C928A",
"%X c #9E9797",
"&X c #948F93",
"*X c #A89688",
"=X c #B69B87",
"-X c #A69A97",
";X c #B39F92",
":X c #BDA289",
">X c #ADA29A",
",X c #B7A598",
"<X c #AEA7A7",
"1X c #B8ABA5",
"2X c #BEB3AB",
"3X c #BDB5B5",
"4X c #B9AFB0",
"5X c #BB9DA7",
"6X c #C6A888",
"7X c #D7AE81",
"8X c #D9B785",
"9X c #C4AB98",
"0X c #CAB299",
"qX c #D6B898",
"wX c #C8B185",
"eX c #E4BB8A",
"rX c #E4B891",
"tX c #C6ACA5",
"yX c #C9B7AA",
"uX c #D3BAA8",
"iX c #C8BBB5",
"pX c #D6BEB6",
"aX c #EAC396",
"sX c #E7C290",
"dX c #DCC3AB",
"fX c #CDC3BC",
"gX c #CDC3B6",
"hX c #D8C7B9",
"jX c #E5C8A7",
"kX c #E4CBB9",
"lX c #E8D3BA",
"zX c #F4D5BC",
"xX c #F1D1AA",
"cX c #DAC199",
"vX c #C4BFC5",
"bX c #CCC6C9",
"nX c #D7CBC4",
"mX c #DED3CB",
"MX c #DBD1C6",
"NX c #DCD6D7",
"BX c #D1CDD2",
"VX c #E2D4CC",
"CX c #E8D8C9",
"ZX c #F6DAC8",
"AX c #E5DAD3",
"SX c #E6DBD7",
"DX c #EED5CE",
"FX c #EDE3D9",
"GX c #F7E8D9",
"HX c #F9E1CA",
"JX c #EAE3E6",
"KX c #F8EBE7",
"LX c #FEF8EC",
"PX c #FDF4F4",
"IX c #F4EBF0",
"UX c #E4DEE0",
/* pixels */
"U Y U v U ! [ [ v Y ! [ { ! ! ! { T T T { { { ! ! ! ! ! ! ! ! Y Y I I I I P P P S S S S d d d d d u u u u u s s l r 6 # @ < 9 j ",
"! ! ~ ~ ! ! ! ! ,.[ ! ! Y ! { [ T T T T T ! ! ! ! ! ! ! ! ! ! Y Y I I I I P P P S S P S d d d d d u u u u u s u i r 6 @ @ @ 8 9 ",
"U ! ! ! Y v U Y v c v U ! { ! Y U T T T T Y Y Y ! ! ! ! ! ! Y Y Y I I I P P P P P S c d c a a s u u u e y y s s i i 9 0 < @ < 6 ",
"! v c v U U ! ~ Y ! [ [ [ [ ! Y U T } } T T U T Y Y Y Y Y Y U U P I I P P P P P P P P c c a a a u u e e e t y t 7 i i 7 < @ @ @ ",
"! v z U ! v v U l z z l z U [ ,.U T T T T R I I I I I I I I P P I I P K K K P P K P c c z a a a y y e e 2 2 7 t 7 i i w 0 > + + ",
"z l z U v l l U [ [ ,. .{ Y v c T T I I I I P S I I I I I P S S I I K K K K K P K K K K z z a a y e e e 4 2 4 7 7 7 w w q 0 > + ",
"i l v v l l ,.e.iXiXiXiX>XU.<.U } T P P R Q Q D F D Q F F D D D I I K B B B K P K B K K K a a a y y y 4 4 4 4 4 q 7 q q w q 1 + ",
"z v ! U l [ U.nXFXFXFXKXLXFXgX>X<.} I I Q ] ] G G G G G G F F F D V V B B B V I B B K B B B a p y y y y 4 4 q q q 0 0 q p w 0 > ",
"z l v l v D.fXAXmXVXAXAXAXSXFXGXGX9XA.5.;.c.c.-.-...-.-.-.+.J *.Z E E Z V F D V V I V B B I B y q B B q 2 4 q 1 p q < q K p 1 1 ",
"v z U U ,.$XVXVXAXAXmXMXnXMXmXVXCXGXZXuXQ.M.m.~.V.v.V.V.b.v.d.m.*.c.M.x.*..._ G Z Z F Q Q I V V y y y q y a K a q 7 i 2 > 2 q + ",
"v c U ! 7.2XGXmXAXmXfX2X1X>X1X1XiXCXHXZXuXV.d.V.L.N.L.V.C.K.V.K.V.E.E.R.m.c.X.G A G G _ E A C V B i q y i q 1 , 2 1 K Y q y K 2 ",
"! ! ! v <.2XKXMXmXnX2X*XD.w.w.A.$X,X,XdXzX}.p.d.f.f.h.s.f.N.C.V.E.L.V.K.L.V.v.X.X.p.p.*.*...G C I a y a a s a Y q + , I ~ t , t ",
"7.7.<.! ,.>XSXnXnXfX1XU.7.{ { ,.4.9.T.6XxX'.f.C.i.y.i.y.i.h.f.f.N.h.f.C.N.L.V.V.b.K.E.V.V.b.p.N B i i z P P } 4.Z.4.i i | s + s ",
"D.e.w.<.4.-XmXfXiXiX1XU.7.! ! [  .4.n.R.~.V.u.i.i.y.i.y.i.f.i.f.j.h.k.h.f.s.h.B.C.L.`.L.V.V.p.H B ,.F.1XhXCXGXLXCXhXA.U } P 3 s ",
"w.w.e.w.w.>XnXiX2X2X>X$Xe.7.<.<.w.A.S.R.V.v.u.y.i.i.l.k.j.s.a.B.B.B._.J.l.s.a.f.f.C.N.N.C.v.f.p.,XfXGXLXLXLXFXVXGXFXyXA.T t 2 # ",
",.<.w.D.D.<XfX2X1X<X>X*XY.A.9.0.6.m.^.^.d.u.i.s.z.z.(.(.B.h.k.].(.J.(.{.{.).B.h.N.h.h.h.f.a.B.'.ZXGXAXnXhXMXVXMXVXhXGXVX4.t s # ",
"c z [ q.t.&XbX4X1X2X,X*XQ.R.R.K.K.N.h.s.u.u.j.H.).J.N.J.).`.).I.I.I.[. XeX|.`.`.L.B.B.l.i.i.B.rXzXCXhXpXyX1X2XnXnXAXnXVXF., 4 e ",
"i 9 j ^ :.r.vXbX4XyX1X=XR.K.L.L.H.k.s.y.' i.H.).{.{.{.`.).P.`.{.P.oX[.}.7XrXeX|.].J.k.l.l.k.(.7XxXuX*X*X;X>X<X4XfXAXmXVXF.3 4 , ",
"Y z i x j 1.<XiX4XyXyX9X^.m.b.N.J.G.G.k.k.H.].XX|. XXX X`.L.`.|.[..X.X`.}.eXaXeX|.J.j.J.(.J.B.N.~.!.S.9.9.w.U.1XiXAXVXMXD.q 4 , ",
"i a l v n 1.<XiX1XyXpX0X^.d.u.s.s.k.J._._._.).].{.{.|. X}.`.W.[. X X X}.}. X8X X|.L.k.J.).(.B.N.K.R.S.6.6.0.F.1XnXMXmXnXD.i 2 2 ",
"a U U ! n >.D.-XyXyXpX0XR.p.u.s.z.k.J._._._.).P.{.[.}.|.'.E.W.}.eX8X8XsX8X|.|. X{.L.j.k.B.B.J.).W.~.R.S.Q.*X-X1XfXiXnXMXU.i < 7 ",
"T } T Y v ! w.#XMXhXuX=Xm.d.v.J.)._.J.J.J.).].[.|.}.}.'.K.b.^.8X7X.X8XaXsX}.}.7X|.`.`.).(.J.l.J.L.~.~.~.=X=X;X1XyX2XnXfXD.i # 6 ",
"y P i c [ 4.*XgXhXuX=Xm.p.d.h.B._.l.z.z.J.).].{.|.}.'.W.R.m.^.8X}.}.8XsX8X|.|.8XaXrXeXeX X).J.J.g.W.}.~.!.Q.*X1X1X2XiX%X,.r @ @ ",
"P } c Y  .4.Y.yX9X=Xm.+.G ' o.u.l.k.z.J.{.XXXX XeX}.W.}.6X:X~.6X~.7XrX8X8X8XeXeXaX7X'.W.L.H.G.J.k.P.W.W.6X6X:X,X1XyX2Xt.9 6 9 9 ",
"a T ~ Y U 2.Y.9XhX!.=.H H X.f.J.(.(.).).{. X|.W.8XaXxXjX0XjXlXjXjXqX}. X8X X8XxXrX6XR.K.L.I.G.g.H.L.`.}.'.:X9XyXpXVX-X^ 6 9 6 6 ",
"Y I z a } A.,XhX!.n.G N H J ' u.N.L.`.`.`.`.7XqXjXjXxXlXdXdXZXHXzXqXK.K.}.eX8X7XwX6X~.~.}.}.P.I.k.N.h.d.d.R.:XyXpXiXD.z 7 7 < < ",
"z z z ~ 0.F.Q.Y.+.E N H ' o.d.f.C.L.`.}.'.~.wXqXjX6X9XdXdX0XyXkXZXxX'.H.P.8X8X8XqXuXuX0XwXwX[.P.k.k.j.d.d.R.6X0XhX,X4.9 i i < 0 ",
"i z ~ 2.9.Z.3.Q Q Z G _ o.p.C.K.E.E.W.wXqX0X6X6X0X0XuXkXhX,X,XhXzXjX~.b.K./.}.wXzXZXZXkXdXcX8X.Xk.l.H.H.K.^.6XdXhX*X( < i i < 6 ",
"z ~  .,.2.3.#./ _ _ _ J J ' p.b.~.~.:XqXjXjX0X9X=XyXuX,XY.Z.Y.hXuX=Xm.b.P.[.W.~.ZXDXnXpXuXqX8X X).J.H.H.b.c.^.dXkX;X .> 2 2 > , ",
"L ( ,.2.,.@.` ` Z Z J J J X.d.R.~.6XqXdXkXlXlXhX;X;X9.P a K } n.S.S.m.H.P.P.K.!.kXtX5XtXyX0XwX}. X).I.P.b.d.m.:XkXuXn.p 2 2 , , ",
"x ^ 2.2.2./ ) M M M A _ X.p.V.~.=XuXkXkXlXZXCXhX>XY.I + 2 i q I n.R.~.W.W.K.m.m.9XOXOX5XpXuXwX}. X{.|.}.W.m.m.T.yXkX=XW 4 4 1 3 ",
"L ~ ( | 2.` Q M A A G _ *.p.c.m.9XhXCXCXHXGXCX9X6.9.W y a 7 7 ,.tXkXlXjXxXjX~.n.2.L ) D.tX9X~.^.}. X X[.W.E.K.M.!.kX,X .2 4 2 , ",
"L R / #.O.E Z A _ G N N A %.n.S.>XfXmXhXCXGXdXQ.;.5.6.@.w q w.nXKXKXKXFXKXnXgX7.0 1 > R Y.9X0XqXlXlXcX^.d.o.o.o...=XuX9.1 0 z 7 ",
"I R @.$.+.E G G G A C C E 6.!.tXmXNXAXAXDXdXR...E F / 9.Y.1XVXPXIXJXJXPXPXSXBXr.@ 7 2 s 9.0XzXHXCXhX0X~.b.u.o.o.J M.Q.9.z 7 l 9 ",
"I W @.5.$._ G G A A N Z +.S.0XCXVXmXmXVXyXS.] N 5 E A.9XDXKXPXPXIXIXIXJXJXJXPXbX,.t , T 6.T.0XZXCXgX9X~.K.p.X.X.....3.0.} i 9 7 ",
"K W @.5.$.E Z A C N M Z 5.Q.tXkXVXMXnXyXS.] F O.6.=XCXKXKXKXKXKXSXJXBX-X@X<XJXIXfXw.} 3.3.n.6XlXMXgX9X~.V.p.X.X.X.A I #.| z y q ",
"I W #.5.$.E V C N 5 5 E n.*XtXyXMXnXyXY.| B Q 6.9XkXZXFXSXKXKXJXSX3X&Xq.1.q.%XSXKXfXY.#.V c.0XdXhXMXuXQ.v.p.u.' X.G V Q I B p 4 ",
"W  .3.5.$.Q V V V C V +.S.,XyXyXhXgX,XA.3.@.6.n.:XpXCXAXSXSXSXNXNXr.n >.>.n >.3XAXmXyXS.] ] S.:XfXmXhX!.c.p.u.' X._ E D C C C 5 ",
"/ | 3.5.#.R B B B B I #.A.*XtXyXgXyX,XQ.n.0.n.Y.;XhXKXPXIXUXNXNX3X>.o j k - ; -XAXmXMXpXY.] $.!.iXMXhX:Xm.p.o.X.X.X.+.O.F V C 5 ",
"/  .#.3.| I p p 4 4 w I 2.A.*X,X*X*X*XF.#.B W 9.yXgXVXSXJXNXBXBXBXr.k - o = k <XnXMXiX;XY.5.;.S.iXfXhX0X^.c.X.X.*.*.6.5...E G N ",
"R W #.3.| R p 7 7 7 w p i z ,.Z.*XF.9.2.a , I w.iXfXmXNXbXbX3X%XD.t.,.O * 8 r.iXAXmXfX,XZ.3.n.;XnXfXiX9XS...J X.X.=.6.c.x.&._ J ",
"R / #.2. .K q 0 < < < 6 6 9 ^ 9.0.9.A.9.7.4.9.A.U.$X<X4X-X&X+Xq.,.1.:.8 m :.r.3X3XNXSXtXZ.2.9.Y.%X<XgXhX=Xc..._ +.=.6.6.6.6.*.*.",
"R | 3.#.T i < < 0 @ @ - - 9 ^ 7.,.w.Y.Y.#X#XD.7.7.e.#X#Xr.q.>.g q.@Xt.,.,.1.1.D.4XbXnX,XY.F.Y.U.>X<X,XY.6...G _ _ / / / ` O.%.*.",
"R @.3.| U 7 < - - O O - - 8 n >.[ 0.D.D.D.e.7.n 7.e.&X%X#X+Xt.>.7.-XOXD.r.r.7.t.<X-XD.0.w.Y.*X-X@X#XD.6./ E _ O.Q I p w w C Z E ",
"Q #.2. .z 9 6 - X X X & - 8 j x x v ! [ ^ n x r n >.q.D.&X-X-X+X2.#XOXOX+X#Xt.r.@Xw.<.[ ,.9.Y.>X&X&XD.2.Q Q _ / ( R p 0 1 1 5 N ",
"W #.#.~ p 9 8 - X X $ = ; 8 g j r - = - = X O 8 . O x >.7.U.#XD.8.Z.F.OXOXOXt.q.7.1.7.e.U.U.e.0.r.r.7. .I Q Q W | ( U l q 2 5 5 ",
"/ #.| P i 9 - & & $ $ = ; g g 8 ; = X X X . X = = = 8 x n <.7.,.) L 2.w.OXOXD.7.^ >.7.r.@XU.7.b = r U | $.$.@.( | >.^ ^ L z w w ",
"| 2. .z 9 8 - . $ X     & ; ; = X o o . = = = . O O = O O 6 j 0 h + ) 1.r.t.t.n - n n k ; b { n b m x z R ( @.3.| | ,.| } T I B ",
"4.,.^ x 8 - - = X $ $ $ X X X   X X X X X X X X & X . & 8 k m m g 8 8 g m m m k ; ; = X . . = f k ; - 9 U  . .] +.+.+.O.] Q Q D ",
",.>.n k 8 - = = X X $ $ X X     $ X X X X X X X & X . $ ; f k g f ; ; ; f f ; $ & & $ $ X X $ = ; ; ; 8 i U W O.%.%.%.....E Q F ",
">.^ m g - = & & X X X X X .     X X X X X X X X & X   X $ = = = = & $ $ & $   o . .   X $ X X   = = = - 6 p R O.O.%.......] ] E ",
"^ n k ; - & & & X X X X . .     X X X X X X X X $ X     X $ X X $ . . . $ $ . o   o o   X X   o : : = = < i R O.%.%.%.%.O.O.] ] ",
"^ x j - & O X X X X X . .       . . . .         X .     X X X .       . X $ X . X   o o X X . o : X . O < p W @.$.&.&.$.%...] ] ",
"n x 8 - & O X . X X . .         . . . .             . . X X X X .               X .       . X X $ X . O < l W @.5.6.=.=.$.%.O.] ",
"x j - O O O X X X . .                               . .         . .               X X .     . X X $ = @ < w R @.6.6.6.6.=.$.+.O.",
"j 8 & X O O O X . . .                               X .   o o o     .     . X $ o   $ X   o   X   = ; - @ 6 P | 6.6.6.6.5.=.$.+.",
"j - O X O X X O . .             . . . . . . . . . . . . . . . . . . . . . . . .           . . . $ . X - < 0 K #.3.5.6.5.=.=.&.%.",
"j - & O O O X X . .             . . . . . . . . . . . . . . . . . . . . . . . .           . . . $ . X - - 1 z | 3.5.6.5.=.=.&.%.",
"j 8 & & O O X X . .             . . . . . . . . . . . . . . . . . . . . . . . .           . . . $ . & - - < i R 3.5.6.5.5.&.&.%.",
"j 8 = = = O . . . . .                                                                     . . . $ $ * - - < 7 a #.3.6.5.&.&.&.%.",
"j 8 = = & X o o . .                                                                       . . . & * * - - < 0 q ( #.5.5.&.&.&.%.",
"j - & O O X . . . .                                                                       . . . % & * * @ @ < 1 K ] 3.5.5.&.&.&.",
"j - O X X . . X . .                                                                       . . . . % % O + + > > y R $.5.5.5.&.&.",
"j - X X X o . X . .                                                                       . . . o . . . + + + + 1 P #.5.5.5.5.&."
};
